<?xml version="1.0" encoding="utf-8"?>
<!-- Generator: Adobe Illustrator 16.0.4, SVG Export Plug-In . SVG Version: 6.00 Build 0)  -->
<!DOCTYPE svg PUBLIC "-//W3C//DTD SVG 1.1//EN" "http://www.w3.org/Graphics/SVG/1.1/DTD/svg11.dtd">
<svg version="1.1" id="Ebene_1" xmlns="http://www.w3.org/2000/svg" xmlns:xlink="http://www.w3.org/1999/xlink" x="0px" y="0px"
	 width="612px" height="792px" viewBox="0 0 612 792" enable-background="new 0 0 612 792" xml:space="preserve">
<g>
	<polygon fill="#B21C20" points="46.581,377.523 105.223,377.523 105.223,392.936 46.581,392.936 46.581,377.523 	"/>
	<polygon fill="#B21C20" points="46.583,400.975 105.225,400.975 105.225,416.387 46.583,416.387 46.583,400.975 	"/>
	<polygon fill="#2C5DAD" points="391.64,368.567 397.322,368.567 397.322,374.25 391.64,374.25 391.64,368.567 	"/>
	<polygon fill="#2C5DAD" points="401.809,368.573 407.491,368.573 407.491,374.256 401.809,374.256 401.809,368.573 	"/>
	<path fill-rule="evenodd" clip-rule="evenodd" fill="#2C5DAD" d="M123.276,377.508v38.902h12.562c6.112,0,10.129-1.049,13.75-3.557
		c5.149-3.5,8.205-9.508,8.205-15.982c0-7.523-4.188-14.522-10.525-17.497c-3.338-1.575-5.263-1.867-12.166-1.867H123.276
		L123.276,377.508z M128.936,411.219v-28.52h6.337c5.149,0,7.017,0.292,9.676,1.633c4.414,2.275,7.017,6.882,7.017,12.482
		c0,4.899-2.094,9.215-5.715,11.782c-2.661,1.865-5.546,2.623-10.356,2.623H128.936L128.936,411.219z"/>
	<polygon fill="#2C5DAD" points="163.235,377.508 163.235,416.41 184.965,416.41 184.965,411.219 168.895,411.219 168.895,399.438
		183.89,399.438 183.89,394.247 168.895,394.247 168.895,382.699 184.455,382.699 184.455,377.508 163.235,377.508 	"/>
	<path fill-rule="evenodd" clip-rule="evenodd" fill="#2C5DAD" d="M190.062,377.508v38.902h5.659v-16.973
		c5.715,0,6.959,1.051,12.731,10.617c1.584,2.682,2.772,4.605,2.943,4.898c0.226,0.35,0.565,0.816,0.961,1.457h6.564
		c-1.301-1.633-2.037-2.623-2.772-3.965l-0.849-1.518l-1.811-3.031c-1.075-1.809-2.434-4.025-3.339-5.367
		c-1.811-2.566-2.603-3.441-4.357-4.783c3.791-1.458,6.054-4.899,6.054-9.273c0-6.882-4.64-10.965-12.505-10.965H190.062
		L190.062,377.508z M195.721,394.247v-11.548h3.791c4.018,0,6.508,2.158,6.508,5.6c0,3.908-2.433,5.948-7.129,5.948H195.721
		L195.721,394.247z"/>
	<path fill-rule="evenodd" clip-rule="evenodd" fill="#2C5DAD" d="M236.816,377.508v38.902h8.545v-15.631h5.885
		c7.299,0,12.392-4.607,12.392-11.256c0-7.058-5.093-12.016-12.279-12.016H236.816L236.816,377.508z M245.361,393.897v-9.507h3.621
		c3.678,0,5.602,1.633,5.602,4.724c0,3.092-1.981,4.783-5.602,4.783H245.361L245.361,393.897z"/>
	<path fill-rule="evenodd" clip-rule="evenodd" fill="#2C5DAD" d="M284.295,377.508h-9.562l-14.486,38.902h8.488l2.885-7.932h16.411
		l3.169,7.932h9.167L284.295,377.508L284.295,377.508z M285.597,402.412h-11.826l5.488-15.63L285.597,402.412L285.597,402.412z"/>
	<path fill-rule="evenodd" clip-rule="evenodd" fill="#2C5DAD" d="M303.878,377.508v38.902h8.544v-15.922h0.849
		c3.112,0,5.319,1.867,7.243,6.064l4.471,9.857h10.072c-0.905-1.107-1.754-2.799-3.169-6.24c-2.886-6.939-4.527-9.623-7.413-11.898
		c4.357-2.391,5.999-4.957,5.999-9.331c0-7-5.093-11.433-13.129-11.433H303.878L303.878,377.508z M312.423,393.781v-9.39h3.792
		c3.395,0,5.205,1.575,5.205,4.607c0,3.033-1.924,4.783-5.205,4.783H312.423L312.423,393.781z"/>
	<polygon fill="#2C5DAD" points="338.676,377.508 338.676,416.41 347.221,416.41 347.221,377.508 338.676,377.508 	"/>
	<polygon fill="#2C5DAD" points="353.155,377.508 353.155,384.391 364.703,384.391 364.703,416.41 373.247,416.41 373.247,384.391
		384.795,384.391 384.795,377.508 353.155,377.508 	"/>
	<path fill-rule="evenodd" clip-rule="evenodd" fill="#2C5DAD" d="M404.103,377.508h-9.562l-14.485,38.902h8.487l2.886-7.932h16.41
		l3.169,7.932h9.167L404.103,377.508L404.103,377.508z M405.404,402.412h-11.826l5.489-15.63L405.404,402.412L405.404,402.412z"/>
	<polygon fill="#2C5DAD" points="415.033,377.508 415.033,384.391 426.581,384.391 426.581,416.41 435.125,416.41 435.125,384.391
		446.673,384.391 446.673,377.508 415.033,377.508 	"/>
	<polygon fill="#2C5DAD" points="459.571,416.41 459.571,377.508 453.912,377.508 453.912,416.41 459.571,416.41 	"/>
	<path fill="#2C5DAD" d="M486.337,379.608c-3.169-1.866-5.545-2.566-8.544-2.566c-6.451,0-11.204,4.374-11.204,10.324
		c0,4.316,2.32,7.466,8.148,10.906c4.526,2.742,4.301,2.566,5.715,3.791c1.642,1.459,2.377,2.801,2.377,4.49
		c0,3.033-2.32,5.018-5.886,5.018c-3.395,0-5.998-1.516-9.789-5.6v7.232c3.396,2.566,6.395,3.674,9.902,3.674
		c6.451,0,11.035-4.373,11.035-10.557c0-5.482-2.207-8.398-9.677-12.772c-4.979-2.858-6.507-4.491-6.507-6.882
		c0-2.391,2.547-4.375,5.545-4.375c3.282,0,5.886,1.226,8.884,4.083V379.608L486.337,379.608z"/>
	<path fill="#2C5DAD" d="M524.931,380.308c-4.866-2.333-8.487-3.266-12.788-3.266c-11.713,0-20.484,8.574-20.484,20.064
		c0,11.256,8.488,19.771,19.691,19.771c5.037,0,9.903-1.283,13.978-3.674v-6.008c-5.093,3.15-8.997,4.434-13.298,4.434
		c-8.432,0-14.543-6.125-14.543-14.465c0-8.458,6.282-14.874,14.6-14.874c3.961,0,7.356,1.109,12.845,4.258V380.308L524.931,380.308
		z"/>
	<polygon fill="#2C5DAD" points="536.982,394.247 536.982,377.508 531.324,377.508 531.324,416.41 536.982,416.41 536.982,399.438
		557.58,399.438 557.58,416.41 563.238,416.41 563.238,377.508 557.58,377.508 557.58,394.247 536.982,394.247 	"/>
	<polygon fill="#2C5DAD" points="570.256,377.508 570.256,416.41 591.984,416.41 591.984,411.219 575.914,411.219 575.914,399.438
		590.91,399.438 590.91,394.247 575.914,394.247 575.914,382.699 591.476,382.699 591.476,377.508 570.256,377.508 	"/>
	<polyline fill="none" stroke="#2C5DAD" stroke-width="2.9337" stroke-miterlimit="3.8637" points="116.966,451.438 21.467,451.438
		21.467,342.467 130.438,342.467 130.438,373.712 	"/>
</g>
<g>
	<path fill="#B21C20" d="M129.397,431.517c2.4,0,3.52,0.256,4.768,1.057c1.6,1.056,2.528,2.88,2.528,4.991
		c0,3.712-2.688,5.983-7.104,5.983h-3.04v9.312h-3.2v-21.343H129.397z M129.653,440.7c2.464,0,3.744-1.088,3.744-3.2
		c0-2.079-1.248-3.136-3.775-3.136h-3.072v6.336H129.653z"/>
	<path fill="#B21C20" d="M143.382,446.588l-2.656,6.271h-3.232l8.991-21.343h2.336l9.407,21.343h-3.328l-2.784-6.271H143.382z
		 M147.637,436.349l-3.008,7.392h6.24L147.637,436.349z"/>
	<path fill="#B21C20" d="M165.781,431.517c4.448,0,7.071,2.24,7.071,6.016c0,2.4-1.28,4.288-3.424,5.088
		c0.992,0.736,1.44,1.216,2.464,2.624c0.512,0.735,1.28,1.951,1.888,2.943l1.024,1.664l0.479,0.832
		c0.416,0.736,0.832,1.28,1.568,2.176h-3.712c-0.224-0.352-0.416-0.608-0.544-0.8c-0.096-0.16-0.768-1.216-1.664-2.688
		c-3.264-5.248-3.968-5.824-7.199-5.824v9.312h-3.2v-21.343H165.781z M165.525,440.7c2.656,0,4.032-1.12,4.032-3.264
		c0-1.888-1.408-3.072-3.68-3.072h-2.144v6.336H165.525z"/>
	<path fill="#B21C20" d="M178.998,452.859v-21.343h3.2v21.343H178.998z"/>
	<path fill="#B21C20" d="M202.292,431.517v2.848h-7.231v18.495h-3.2v-18.495h-7.264v-2.848H202.292z"/>
	<path fill="#B21C20" d="M208.468,446.588l-2.656,6.271h-3.232l8.991-21.343h2.336l9.407,21.343h-3.2l-2.848-6.271H208.468z
		 M211.764,428.317c0,1.023-0.8,1.823-1.792,1.823c-1.024,0-1.824-0.8-1.824-1.823c0-0.992,0.8-1.792,1.824-1.792
		C210.964,426.525,211.764,427.325,211.764,428.317z M212.724,436.477l-3.008,7.264h6.24L212.724,436.477z M217.748,428.317
		c0,1.023-0.8,1.823-1.792,1.823c-1.024,0-1.824-0.8-1.824-1.823c0-0.992,0.8-1.792,1.824-1.792
		C216.948,426.525,217.748,427.325,217.748,428.317z"/>
	<path fill="#B21C20" d="M241.299,431.517v2.848h-7.231v18.495h-3.2v-18.495h-7.264v-2.848H241.299z"/>
	<path fill="#B21C20" d="M243.732,452.859v-21.343h3.2v21.343H243.732z"/>
	<path fill="#B21C20" d="M261.811,436.381c-1.696-1.568-3.167-2.24-5.023-2.24c-1.696,0-3.136,1.088-3.136,2.4
		c0,1.312,0.864,2.207,3.68,3.775c4.224,2.399,5.472,4,5.472,7.008c0,3.392-2.592,5.791-6.24,5.791c-1.984,0-3.68-0.607-5.6-2.016
		v-3.968c2.144,2.24,3.616,3.071,5.536,3.071c2.016,0,3.328-1.088,3.328-2.751c0-0.929-0.416-1.664-1.344-2.464
		c-0.8-0.672-0.672-0.576-3.232-2.08c-3.295-1.888-4.607-3.616-4.607-5.983c0-3.264,2.688-5.664,6.335-5.664
		c1.696,0,3.04,0.384,4.832,1.408V436.381z"/>
	<path fill="#B21C20" d="M284.082,436.477c-3.104-1.728-5.023-2.336-7.264-2.336c-4.704,0-8.255,3.52-8.255,8.159
		c0,4.576,3.456,7.936,8.224,7.936c2.432,0,4.64-0.704,7.52-2.432v3.296c-2.304,1.312-5.056,2.016-7.903,2.016
		c-6.336,0-11.135-4.672-11.135-10.847c0-6.304,4.959-11.008,11.583-11.008c2.432,0,4.479,0.512,7.231,1.792V436.477z"/>
	<path fill="#B21C20" d="M302.482,440.7v-9.184h3.199v21.343h-3.199v-9.312h-11.647v9.312h-3.2v-21.343h3.2v9.184H302.482z"/>
	<path fill="#B21C20" d="M322.097,431.517v2.848h-8.799v6.336h8.479v2.848h-8.479v6.464h9.087v2.848h-12.287v-21.343H322.097z"/>
	<path fill="#B21C20" d="M336.177,436.381c-1.696-1.568-3.168-2.24-5.024-2.24c-1.695,0-3.136,1.088-3.136,2.4
		c0,1.312,0.864,2.207,3.68,3.775c4.225,2.399,5.472,4,5.472,7.008c0,3.392-2.592,5.791-6.239,5.791c-1.983,0-3.68-0.607-5.6-2.016
		v-3.968c2.144,2.24,3.616,3.071,5.536,3.071c2.016,0,3.327-1.088,3.327-2.751c0-0.929-0.416-1.664-1.344-2.464
		c-0.8-0.672-0.672-0.576-3.231-2.08c-3.296-1.888-4.608-3.616-4.608-5.983c0-3.264,2.688-5.664,6.336-5.664
		c1.696,0,3.04,0.384,4.832,1.408V436.381z"/>
	<path fill="#B21C20" d="M354.737,431.517c4.063,0,6.655,2.145,6.655,5.536c0,2.048-1.023,3.584-2.943,4.415
		c2.943,0.641,4.768,2.656,4.768,5.344c0,1.952-0.928,3.68-2.56,4.736c-1.408,0.896-3.136,1.312-5.792,1.312h-6.176v-21.343H354.737
		z M353.585,440.7c1.408,0,2.272-0.16,2.944-0.512c0.992-0.512,1.632-1.664,1.632-2.88c0-2.048-1.184-2.944-3.84-2.944h-2.432v6.336
		H353.585z M355.186,450.012c3.199,0,4.735-1.088,4.735-3.328c0-2.144-1.567-3.136-4.928-3.136h-3.104v6.464H355.186z"/>
	<path fill="#B21C20" d="M366.642,452.859v-21.343h3.2v21.343H366.642z"/>
	<path fill="#B21C20" d="M377.457,431.517v18.495h9.407v2.848h-12.607v-21.343H377.457z"/>
	<path fill="#B21C20" d="M396.272,431.517c3.904,0,4.992,0.16,6.88,1.024c3.584,1.632,5.951,5.472,5.951,9.6
		c0,3.551-1.728,6.847-4.64,8.767c-2.048,1.376-4.319,1.952-7.775,1.952h-7.104v-21.343H396.272z M396.721,450.012
		c2.72,0,4.352-0.416,5.855-1.44c2.048-1.407,3.231-3.775,3.231-6.463c0-3.072-1.472-5.6-3.967-6.848
		c-1.504-0.736-2.561-0.896-5.472-0.896h-3.584v15.647H396.721z"/>
	<path fill="#B21C20" d="M415.825,431.517v13.087c0,2.145,0.352,3.104,1.536,4.192c1.056,0.991,2.432,1.439,4.319,1.439
		c1.855,0,3.231-0.448,4.288-1.439c1.184-1.088,1.535-2.048,1.535-4.192v-13.087h3.2v13.087c0,2.977-0.704,4.8-2.464,6.272
		c-1.696,1.439-4.063,2.239-6.56,2.239c-2.528,0-4.896-0.8-6.592-2.239c-1.76-1.473-2.464-3.296-2.464-6.272v-13.087H415.825z"/>
	<path fill="#B21C20" d="M454.928,431.517v21.343h-2.783l-13.823-16.351v16.351h-3.2v-21.343h2.912l13.695,16.255v-16.255H454.928z"
		/>
	<path fill="#B21C20" d="M477.68,442.332v8.959c-2.784,1.248-5.248,1.824-7.871,1.824c-6.496,0-11.359-4.575-11.359-10.719
		c0-6.399,4.863-11.136,11.391-11.136c2.305,0,5.056,0.704,7.488,1.888v3.232c-3.04-1.632-5.12-2.24-7.584-2.24
		c-4.447,0-8.031,3.552-8.031,8.031c0,4.672,3.456,8.063,8.224,8.063c1.439,0,2.783-0.288,4.543-0.928v-4.128h-3.999v-2.848H477.68z
		"/>
	<path fill="#B21C20" d="M492.209,436.381c-1.696-1.568-3.168-2.24-5.024-2.24c-1.695,0-3.136,1.088-3.136,2.4
		c0,1.312,0.864,2.207,3.68,3.775c4.225,2.399,5.472,4,5.472,7.008c0,3.392-2.592,5.791-6.239,5.791c-1.983,0-3.68-0.607-5.6-2.016
		v-3.968c2.144,2.24,3.616,3.071,5.536,3.071c2.016,0,3.327-1.088,3.327-2.751c0-0.929-0.416-1.664-1.344-2.464
		c-0.8-0.672-0.672-0.576-3.231-2.08c-3.296-1.888-4.608-3.616-4.608-5.983c0-3.264,2.688-5.664,6.336-5.664
		c1.696,0,3.04,0.384,4.832,1.408V436.381z"/>
	<path fill="#B21C20" d="M525.039,431.517l-7.775,21.343h-0.832l-6.624-17.055l-6.399,17.055h-0.8l-8.063-21.343h3.136l5.312,14.367
		l5.312-14.367h2.944l5.567,14.367l5.088-14.367H525.039z"/>
	<path fill="#B21C20" d="M539.472,431.517v2.848h-8.799v6.336h8.479v2.848h-8.479v6.464h9.087v2.848h-12.287v-21.343H539.472z"/>
	<path fill="#B21C20" d="M548.336,431.517c4.447,0,7.071,2.24,7.071,6.016c0,2.4-1.28,4.288-3.424,5.088
		c0.992,0.736,1.44,1.216,2.464,2.624c0.512,0.735,1.28,1.951,1.888,2.943l1.024,1.664l0.479,0.832
		c0.416,0.736,0.832,1.28,1.568,2.176h-3.712c-0.224-0.352-0.416-0.608-0.544-0.8c-0.096-0.16-0.768-1.216-1.664-2.688
		c-3.264-5.248-3.968-5.824-7.199-5.824v9.312h-3.2v-21.343H548.336z M548.08,440.7c2.655,0,4.031-1.12,4.031-3.264
		c0-1.888-1.407-3.072-3.68-3.072h-2.144v6.336H548.08z"/>
	<path fill="#B21C20" d="M564.752,431.517v9.535l8.671-9.535h4.032l-9.216,10.144l11.455,11.199h-4.383l-10.56-10.175v10.175h-3.2
		v-21.343H564.752z"/>
	<path fill="#B21C20" d="M123.254,493.868c1.248,0.768,3.072,1.408,4.992,1.408c2.848,0,4.512-1.504,4.512-3.681
		c0-2.016-1.152-3.167-4.064-4.287c-3.52-1.248-5.695-3.072-5.695-6.111c0-3.36,2.784-5.855,6.976-5.855
		c2.208,0,3.808,0.512,4.768,1.056l-0.768,2.271c-0.704-0.384-2.144-1.023-4.096-1.023c-2.944,0-4.064,1.76-4.064,3.231
		c0,2.016,1.312,3.008,4.288,4.16c3.647,1.407,5.503,3.167,5.503,6.335c0,3.328-2.464,6.208-7.551,6.208
		c-2.08,0-4.352-0.608-5.504-1.376L123.254,493.868z"/>
	<path fill="#B21C20" d="M148.053,497.26l-0.224-1.952h-0.096c-0.864,1.216-2.528,2.304-4.736,2.304
		c-3.136,0-4.735-2.207-4.735-4.447c0-3.744,3.328-5.792,9.311-5.76v-0.319c0-1.28-0.352-3.584-3.52-3.584
		c-1.44,0-2.944,0.448-4.032,1.151l-0.64-1.855c1.28-0.832,3.136-1.376,5.088-1.376c4.735,0,5.887,3.231,5.887,6.336v5.791
		c0,1.344,0.064,2.656,0.256,3.712H148.053z M147.637,489.356c-3.072-0.064-6.56,0.479-6.56,3.487c0,1.824,1.216,2.688,2.656,2.688
		c2.016,0,3.296-1.28,3.744-2.592c0.096-0.288,0.16-0.608,0.16-0.896V489.356z"/>
	<path fill="#B21C20" d="M166.101,496.684c-0.736,0.384-2.368,0.896-4.448,0.896c-4.671,0-7.711-3.168-7.711-7.903
		c0-4.769,3.264-8.224,8.319-8.224c1.664,0,3.136,0.416,3.904,0.8l-0.64,2.176c-0.672-0.384-1.728-0.736-3.264-0.736
		c-3.552,0-5.472,2.624-5.472,5.855c0,3.584,2.304,5.792,5.376,5.792c1.6,0,2.656-0.416,3.456-0.768L166.101,496.684z"/>
	<path fill="#B21C20" d="M169.558,474.541h2.816v9.664h0.064c0.448-0.801,1.152-1.504,2.016-1.984c0.832-0.479,1.824-0.8,2.88-0.8
		c2.08,0,5.408,1.28,5.408,6.624v9.215h-2.816v-8.896c0-2.496-0.928-4.607-3.584-4.607c-1.824,0-3.264,1.28-3.775,2.815
		c-0.16,0.384-0.192,0.8-0.192,1.344v9.344h-2.816V474.541z"/>
	<path fill="#B21C20" d="M187.093,494.38c0.832,0.544,2.304,1.12,3.712,1.12c2.048,0,3.008-1.024,3.008-2.304
		c0-1.344-0.8-2.08-2.88-2.848c-2.784-0.992-4.096-2.528-4.096-4.384c0-2.496,2.016-4.544,5.344-4.544
		c1.568,0,2.944,0.448,3.808,0.96l-0.704,2.048c-0.608-0.384-1.728-0.896-3.167-0.896c-1.664,0-2.592,0.96-2.592,2.111
		c0,1.28,0.928,1.855,2.944,2.624c2.688,1.023,4.063,2.368,4.063,4.672c0,2.72-2.112,4.64-5.792,4.64
		c-1.696,0-3.264-0.416-4.352-1.057L187.093,494.38z"/>
	<path fill="#B21C20" d="M201.877,490.028c0.064,3.808,2.496,5.376,5.312,5.376c2.016,0,3.232-0.353,4.288-0.801l0.48,2.017
		c-0.992,0.447-2.688,0.96-5.151,0.96c-4.768,0-7.616-3.136-7.616-7.808s2.752-8.352,7.264-8.352c5.056,0,6.399,4.447,6.399,7.296
		c0,0.575-0.064,1.023-0.096,1.312H201.877z M210.132,488.013c0.032-1.792-0.736-4.576-3.904-4.576c-2.848,0-4.096,2.624-4.32,4.576
		H210.132z"/>
	<path fill="#B21C20" d="M216.501,485.965c0-1.601-0.032-2.912-0.128-4.192h2.496l0.16,2.561h0.064
		c0.768-1.473,2.56-2.912,5.12-2.912c2.144,0,5.472,1.28,5.472,6.592v9.247h-2.816v-8.928c0-2.495-0.928-4.575-3.584-4.575
		c-1.855,0-3.295,1.312-3.775,2.88c-0.128,0.352-0.192,0.832-0.192,1.312v9.312h-2.816V485.965z"/>
	<path fill="#B21C20" d="M240.948,487.564v2.08h-7.903v-2.08H240.948z"/>
	<path fill="#B21C20" d="M247.988,490.477l-2.24,6.783h-2.88l7.328-21.566h3.36l7.359,21.566h-2.976l-2.304-6.783H247.988z
		 M255.06,488.301l-2.112-6.208c-0.48-1.408-0.8-2.688-1.12-3.936h-0.064c-0.32,1.28-0.672,2.592-1.088,3.903l-2.112,6.24H255.06z"
		/>
	<path fill="#B21C20" d="M264.148,485.965c0-1.601-0.032-2.912-0.128-4.192h2.496l0.16,2.561h0.064
		c0.768-1.473,2.56-2.912,5.12-2.912c2.144,0,5.472,1.28,5.472,6.592v9.247h-2.816v-8.928c0-2.495-0.928-4.575-3.584-4.575
		c-1.855,0-3.295,1.312-3.775,2.88c-0.128,0.352-0.192,0.832-0.192,1.312v9.312h-2.816V485.965z"/>
	<path fill="#B21C20" d="M282.068,474.541h2.816v9.664h0.064c0.448-0.801,1.152-1.504,2.016-1.984c0.832-0.479,1.824-0.8,2.88-0.8
		c2.08,0,5.408,1.28,5.408,6.624v9.215h-2.816v-8.896c0-2.496-0.928-4.607-3.584-4.607c-1.824,0-3.264,1.28-3.775,2.815
		c-0.16,0.384-0.192,0.8-0.192,1.344v9.344h-2.816V474.541z"/>
	<path fill="#B21C20" d="M308.563,497.26l-0.225-1.952h-0.096c-0.864,1.216-2.528,2.304-4.735,2.304
		c-3.136,0-4.736-2.207-4.736-4.447c0-3.744,3.328-5.792,9.312-5.76v-0.319c0-1.28-0.352-3.584-3.52-3.584
		c-1.44,0-2.944,0.448-4.032,1.151l-0.64-1.855c1.28-0.832,3.136-1.376,5.088-1.376c4.735,0,5.888,3.231,5.888,6.336v5.791
		c0,1.344,0.063,2.656,0.256,3.712H308.563z M308.147,489.356c-3.072-0.064-6.56,0.479-6.56,3.487c0,1.824,1.216,2.688,2.655,2.688
		c2.016,0,3.296-1.28,3.744-2.592c0.096-0.288,0.16-0.608,0.16-0.896V489.356z"/>
	<path fill="#B21C20" d="M315.571,474.541h2.815v22.719h-2.815V474.541z"/>
	<path fill="#B21C20" d="M326.675,477.325v4.447h4.032v2.145h-4.032v8.352c0,1.919,0.544,3.008,2.112,3.008
		c0.735,0,1.279-0.097,1.632-0.192l0.128,2.111c-0.544,0.225-1.408,0.385-2.496,0.385c-1.312,0-2.368-0.416-3.04-1.185
		c-0.8-0.832-1.088-2.208-1.088-4.031v-8.447h-2.399v-2.145h2.399v-3.711L326.675,477.325z"/>
</g>
</svg>
